<?xml version="1.0" encoding="UTF-8" standalone="no"?>
<svg
   xmlns:dc="http://purl.org/dc/elements/1.1/"
   xmlns:cc="http://creativecommons.org/ns#"
   xmlns:rdf="http://www.w3.org/1999/02/22-rdf-syntax-ns#"
   xmlns:svg="http://www.w3.org/2000/svg"
   xmlns="http://www.w3.org/2000/svg"
   id="svg18"
   preserveAspectRatio="xMidYMid meet"
   viewBox="0 0 310.000000 310.000000"
   height="310.000000pt"
   width="310.000000pt"
   version="1.0">
  <defs
     id="defs22" />
  <metadata
     id="metadata2">
Created by potrace 1.11, written by Peter Selinger 2001-2013
<rdf:RDF>
  <cc:Work
     rdf:about="">
    <dc:format>image/svg+xml</dc:format>
    <dc:type
       rdf:resource="http://purl.org/dc/dcmitype/StillImage" />
    <dc:title></dc:title>
  </cc:Work>
</rdf:RDF>
</metadata>
  <path
     transform="scale(0.74999998)"
     id="path856"
     d="M 103.58789 63.068359 C 98.699722 63.086879 92.977435 63.269737 85.363281 63.513672 C 68.560382 64.051984 49.959732 65.278893 44.029297 66.240234 C 38.098862 67.201573 25.765802 68.520327 16.623047 69.171875 L 0 70.357422 L 0 206.66602 L 0 296.59375 L 0 357.08398 L 0 380.98633 L 0 413.33398 L 27.855469 413.33398 C 39.536033 413.33398 49.552431 413.08218 53.673828 412.73047 C 54.620225 412.64971 55.298757 412.56431 55.566406 412.47461 C 55.661954 412.44259 55.710938 412.4098 55.710938 412.37695 C 55.710938 412.24543 55.457127 411.62143 55 410.60742 C 54.969576 410.53995 54.903309 410.40488 54.871094 410.33398 C 53.453222 407.21358 50.34825 400.86899 46.724609 393.73633 C 46.720884 393.729 46.718568 393.72217 46.714844 393.71484 C 46.712344 393.70992 46.709532 393.70609 46.707031 393.70117 C 46.702736 393.69272 46.699606 393.68423 46.695312 393.67578 C 41.750028 383.9393 38.144187 374.88191 38.681641 373.54102 C 38.863613 373.08699 40.03437 372.0271 41.816406 370.61719 C 44.711634 368.3929 48.904891 365.40647 53.783203 362.13086 C 53.858213 362.08049 53.934458 362.03096 54.009766 361.98047 C 54.132682 361.89806 54.264981 361.81123 54.388672 361.72852 C 55.547981 360.96545 56.735864 360.19365 57.947266 359.41992 C 63.34115 355.9748 68.369794 352.39032 73.849609 347.98438 C 81.307857 342.07796 89.065703 335.05251 99.498047 324.88672 C 101.83263 322.63867 104.2465 320.29996 106.85742 317.74219 C 140.33003 284.95103 150.89793 276.95335 180.60938 261.92383 C 218.1161 242.95108 222.44378 241.53453 247.71094 239.97461 C 263.97154 238.9707 267.77132 239.32081 278.14648 242.77344 C 284.66683 244.94328 292.49799 248.19019 295.54883 249.99023 C 298.59964 251.79026 305.76417 253.81173 311.4707 254.48242 C 321.23916 255.63052 322.16722 255.39885 327.31641 250.50391 C 334.80309 243.38688 337.85547 236.94079 337.85547 228.25 C 337.85547 213.71275 328.9026 203.19763 314.29102 200.57422 C 307.3191 199.32247 302.67539 195.32233 301.64062 189.67578 C 301.59215 189.41127 301.48532 189.12155 301.3457 188.81836 C 301.13959 187.00512 300.16377 185.64495 298.56836 185.23828 C 294.56982 181.25585 287.30786 176.36051 280.34766 173.30469 C 276.88823 171.78585 271.53187 168.09846 268.44531 165.11133 C 264.03169 160.83987 261.53892 159.80346 256.76562 160.25977 C 250.78431 160.83155 250.68957 160.97648 250.26562 170.22656 L 250.69531 160.83984 L 257.88477 159.91797 C 261.83839 159.41018 264.91696 158.19748 264.72656 157.22266 C 263.47423 150.81119 252.39793 121.83141 248.89844 115.81055 C 246.56744 111.80007 241.0444 105.18498 236.625 101.11133 C 220.91099 86.626645 202.86951 79.881701 153.50195 70.033203 C 125.39641 64.426336 118.25241 63.012801 103.58789 63.068359 z M 161.97852 106.68359 C 162.83753 106.6776 163.71404 106.70048 164.59766 106.73828 C 164.80325 106.74708 165.00804 106.75642 165.21484 106.76758 C 166.07459 106.81393 166.94175 106.87794 167.82031 106.96484 C 167.98884 106.98151 168.159 107.00333 168.32812 107.02148 C 169.14529 107.10919 169.96883 107.21375 170.79883 107.33594 C 170.94237 107.35707 171.08463 107.37433 171.22852 107.39648 C 172.13818 107.53658 173.05543 107.69993 173.97656 107.88086 C 174.19457 107.92367 174.41233 107.97055 174.63086 108.01562 C 175.57156 108.20975 176.51479 108.4163 177.46289 108.65234 C 178.43028 108.89319 179.40183 109.16316 180.37305 109.44727 C 180.56069 109.50215 180.74785 109.55679 180.93555 109.61328 C 181.88026 109.89763 182.82556 110.19863 183.76953 110.52344 C 183.92814 110.57801 184.08561 110.63765 184.24414 110.69336 C 185.07744 110.98619 185.90867 111.29506 186.73828 111.61914 C 186.93552 111.69618 187.13313 111.76885 187.33008 111.84766 C 188.23782 112.21088 189.14152 112.59574 190.04102 112.99609 C 190.25577 113.09167 190.46943 113.18942 190.68359 113.28711 C 191.62239 113.71531 192.55717 114.15659 193.48242 114.625 C 197.27424 116.5446 205.0276 120.42097 210.71094 123.24023 C 213.5526 124.64987 216.1349 126.06809 218.00781 127.2168 C 218.47596 127.50399 218.8992 127.77422 219.27148 128.02344 C 220.38932 128.77147 221.04297 129.32813 221.04297 129.57812 C 221.04297 130.05158 220.92114 130.55813 220.69336 131.08594 C 220.46576 131.61332 220.1312 132.16244 219.70703 132.7207 C 219.49444 133.00051 219.26006 133.28325 219.00391 133.56641 C 218.74818 133.84912 218.47302 134.13094 218.17773 134.41406 C 217.88212 134.6975 217.56772 134.9808 217.23633 135.26172 C 216.90532 135.5423 216.55815 135.82057 216.19531 136.0957 C 215.8325 136.37085 215.45328 136.64339 215.0625 136.91016 C 213.89043 137.71007 212.60021 138.46489 211.24609 139.13672 C 209.89153 139.80885 208.47352 140.39844 207.04102 140.86328 C 206.56351 141.01823 206.0839 141.1591 205.60547 141.28516 C 202.33895 142.14581 200.19848 142.73802 198.34961 143.05469 C 197.61008 143.18138 196.91627 143.2649 196.2168 143.30273 C 195.51732 143.34057 194.81106 143.33331 194.04492 143.28125 C 193.01141 143.21102 191.82435 143.04075 190.44141 142.80469 C 190.2866 142.77827 190.17468 142.76875 190.01367 142.74023 L 190.01172 142.74023 C 187.87919 142.36246 185.1877 141.80064 181.50781 141.05078 C 179.72841 140.68819 178.04282 140.3082 176.44922 139.91016 L 176.44727 139.91016 C 175.6502 139.71105 174.87708 139.50753 174.125 139.29883 C 171.86869 138.67272 169.81279 138.0025 167.94336 137.28125 C 165.45079 136.31959 163.29025 135.26734 161.42969 134.10938 C 159.56973 132.95168 158.00885 131.68773 156.7168 130.30273 L 156.7168 130.30078 C 156.07068 129.60809 155.49065 128.88623 154.97461 128.13086 C 154.11654 126.87483 152.882 125.24248 151.58398 123.625 C 150.93535 122.81705 150.27015 122.01179 149.62891 121.25977 L 149.62695 121.25781 C 148.98518 120.50521 148.36848 119.80597 147.8125 119.20703 C 146.59598 117.89652 145.6717 116.79609 145.03516 115.84766 C 144.71688 115.37344 144.47026 114.9363 144.29492 114.53125 C 144.11958 114.1262 144.01425 113.75246 143.98047 113.40234 C 143.94658 113.05218 143.98354 112.72547 144.08984 112.41602 C 144.1432 112.26085 144.21438 112.1105 144.30273 111.96289 C 144.39088 111.81533 144.4962 111.67306 144.61914 111.53125 C 144.7415 111.3901 144.88045 111.2505 145.03711 111.11328 C 145.19417 110.97576 145.36922 110.84044 145.56055 110.70508 C 145.94316 110.43434 146.39338 110.1653 146.91211 109.89258 C 147.35453 109.65998 147.81692 109.44521 148.28711 109.23828 C 148.41195 109.18335 148.53733 109.1293 148.66406 109.07617 C 149.14706 108.87364 149.639 108.68035 150.14844 108.50391 C 150.65464 108.32858 151.17822 108.17121 151.70898 108.02148 C 151.84829 107.9822 151.98797 107.94378 152.12891 107.90625 C 152.66723 107.76285 153.21239 107.62764 153.77344 107.50977 C 154.53243 107.3504 155.31805 107.22043 156.11523 107.10742 C 156.35617 107.07325 156.60151 107.04559 156.8457 107.01562 C 157.45308 106.94117 158.06894 106.88057 158.69531 106.83203 C 158.92506 106.81421 159.15261 106.79364 159.38477 106.7793 C 160.23568 106.72676 161.09786 106.68974 161.97852 106.68359 z M 161.58008 113.6543 C 160.4763 113.69193 158.93255 114.91401 157.42578 117.30273 C 155.95435 119.63544 156.65657 121.42925 160.68945 125.63867 C 163.516 128.58894 167.53725 131.258 169.625 131.56836 C 176.4276 132.57962 197.75336 131.71529 199.08203 130.375 C 200.69862 128.74429 191.45825 121.03905 184.04688 117.83789 C 173.01681 113.07375 171.66261 113.02105 169.79688 117.27344 C 167.40613 122.72243 162.49609 122.60229 163.0918 117.10938 C 163.34622 114.76335 162.68385 113.61666 161.58008 113.6543 z M 262.17188 178.88867 C 262.97883 179.07618 263.75882 179.30816 264.49023 179.57812 C 263.75884 179.30819 262.97884 179.07619 262.17188 178.88867 z M 1.7988281 295.41992 C 1.8152447 295.41912 1.8369123 295.42253 1.8535156 295.42188 C 1.6356733 295.43086 1.4343003 295.45376 1.25 295.48828 C 1.4201369 295.45627 1.5996599 295.42971 1.7988281 295.41992 z M 2.765625 295.46094 C 2.8737366 295.47179 2.9828121 295.48618 3.0957031 295.50195 C 2.9838715 295.48658 2.872731 295.47144 2.765625 295.46094 z M 3.5097656 296.66992 C 3.5387863 296.66888 3.5582415 296.67463 3.5722656 296.68555 C 3.5542259 296.67252 3.5194319 296.67464 3.4785156 296.67969 C 3.4863834 296.67873 3.5027527 296.67017 3.5097656 296.66992 z "
     style="fill:#000000;stroke-width:1.7971015;stroke:none" />
</svg>
