<?xml version="1.0" standalone="no"?>
<!DOCTYPE svg PUBLIC "-//W3C//DTD SVG 20010904//EN"
 "http://www.w3.org/TR/2001/REC-SVG-20010904/DTD/svg10.dtd">
<svg version="1.0" xmlns="http://www.w3.org/2000/svg"
 width="310.000000pt" height="310.000000pt" viewBox="0 0 310.000000 310.000000"
 preserveAspectRatio="xMidYMid meet">
<metadata>
Created by potrace 1.11, written by Peter Selinger 2001-2013
</metadata>
<g transform="translate(0.000000,310.000000) scale(0.100000,-0.100000)"
fill="#000000" stroke="none">
<path d="M0 2840 l0 -260 32 0 c30 0 110 8 298 30 272 32 511 31 685 -1 61
-12 133 -25 160 -30 28 -5 70 -13 95 -19 25 -5 68 -13 95 -19 122 -23 316
-109 391 -173 102 -86 131 -131 183 -289 17 -53 40 -113 51 -134 23 -45 12
-70 -27 -62 -13 2 -23 0 -23 -4 0 -5 -9 -9 -20 -9 -15 0 -20 -7 -20 -29 0 -32
24 -58 51 -53 19 3 66 -22 87 -47 6 -8 12 -24 12 -36 0 -33 23 -75 42 -75 9 0
20 -5 23 -10 3 -5 14 -10 25 -10 10 0 32 -12 49 -27 21 -18 43 -28 64 -28 26
0 33 -4 35 -23 5 -31 22 -17 22 17 0 21 6 30 22 35 13 3 27 1 32 -4 6 -6 18
-10 27 -10 10 0 29 -14 43 -31 21 -24 26 -41 26 -82 -1 -55 -22 -109 -34 -88
-5 8 -16 5 -37 -10 -26 -18 -38 -20 -89 -14 l-60 7 0 -30 c0 -31 -26 -63 -38
-46 -4 5 -20 16 -37 24 -16 9 -30 22 -30 30 0 14 -39 42 -53 38 -4 -1 -21 6
-39 15 -18 9 -38 17 -46 17 -7 0 -18 5 -24 11 -10 10 -67 33 -145 59 -32 10
-45 -2 -23 -20 8 -7 15 -18 15 -25 0 -7 7 -18 15 -25 27 -22 6 -28 -93 -27
-79 1 -102 -2 -124 -17 -22 -14 -33 -16 -56 -8 -24 8 -37 6 -79 -17 -38 -21
-56 -25 -78 -19 -32 8 -60 4 -118 -18 -20 -8 -51 -14 -67 -14 -16 0 -32 -5
-36 -11 -3 -6 -17 -8 -29 -5 -13 3 -27 2 -30 -4 -3 -5 -17 -10 -30 -10 -13 0
-27 -5 -30 -10 -3 -5 -14 -10 -25 -10 -10 0 -20 -7 -24 -15 -3 -8 -13 -15 -23
-15 -23 -1 -57 -26 -49 -38 3 -5 -5 -7 -18 -5 -18 4 -24 1 -23 -12 2 -22 -33
-46 -40 -27 -7 19 -25 14 -21 -6 3 -20 -30 -62 -49 -62 -24 0 -63 -43 -57 -62
3 -12 0 -18 -10 -18 -8 0 -18 -9 -21 -20 -7 -22 -6 -22 -85 -24 -91 -4 -138
-16 -143 -38 -3 -10 -11 -18 -19 -17 -14 2 -50 -11 -58 -21 -10 -13 -69 -28
-89 -23 -12 3 -21 1 -21 -6 0 -8 -7 -7 -23 3 -28 18 -77 18 -84 0 -3 -8 -11
-14 -19 -14 -8 0 -14 -7 -14 -15 0 -18 -69 -33 -79 -16 -5 8 -16 7 -39 -5
l-32 -15 0 -380 0 -379 1550 0 1550 0 0 1550 0 1550 -1550 0 -1550 0 0 -260z
m2168 -1103 c6 3 12 -2 12 -10 0 -20 -30 -77 -40 -77 -22 0 -41 76 -24 93 4 3
14 3 23 -2 9 -5 22 -6 29 -4z m-88 -27 c0 -5 -2 -10 -4 -10 -3 0 -8 5 -11 10
-3 6 -1 10 4 10 6 0 11 -4 11 -10z m321 -443 c-1 -12 -15 -9 -19 4 -3 6 1 10
8 8 6 -3 11 -8 11 -12z m-1811 -367 c0 -5 -8 -10 -17 -10 -15 0 -16 2 -3 10
19 12 20 12 20 0z"/>
<path d="M1202 2283 c-12 -9 -40 -16 -62 -16 -47 0 -58 -10 -31 -29 10 -7 29
-34 41 -60 19 -41 31 -52 85 -78 35 -17 83 -32 107 -34 23 -2 50 -6 58 -9 49
-18 170 -8 170 15 0 4 11 8 25 8 14 0 28 6 31 14 6 15 -28 56 -46 56 -6 0 -20
11 -32 25 -14 17 -32 25 -53 25 -22 0 -40 9 -60 30 -17 18 -39 30 -54 30 -14
0 -46 9 -70 20 -51 24 -78 24 -109 3z m58 -63 c0 -5 -4 -10 -10 -10 -5 0 -10
5 -10 10 0 6 5 10 10 10 6 0 10 -4 10 -10z"/>
<path d="M1615 1580 c3 -5 11 -10 16 -10 6 0 7 5 4 10 -3 6 -11 10 -16 10 -6
0 -7 -4 -4 -10z"/>
<path d="M2012 1553 c2 -10 10 -17 16 -15 7 1 17 -9 22 -23 8 -20 16 -25 44
-25 25 0 42 -8 58 -25 19 -21 29 -24 61 -18 20 3 37 9 37 13 0 16 -40 41 -124
74 -100 41 -119 44 -114 19z"/>
<path d="M2172 1357 c-9 -10 -8 -19 4 -35 21 -31 38 -28 29 6 -9 36 -19 46
-33 29z"/>
<path d="M790 1085 c0 -8 5 -15 10 -15 6 0 10 7 10 15 0 8 -4 15 -10 15 -5 0
-10 -7 -10 -15z"/>
</g>
</svg>
